<?xml version="1.0" encoding="UTF-8" standalone="no"?>
<!-- Created with Bouml (http://bouml.free.fr/) -->
<!DOCTYPE svg PUBLIC "-//W3C//DTD SVG 1.1//EN" "http://www.w3.org/Graphics/SVG/1.1/DTD/svg11.dtd">
<svg width="813" height="327" version="1.1" xmlns="http://www.w3.org/2000/svg">
<g>
	<line stroke="black" stroke-dasharray="18,6"  stroke-opacity="1" x1="428" y1="45" x2="428" y2="327" />
</g>
<g>
	<line stroke="black" stroke-dasharray="18,6"  stroke-opacity="1" x1="227" y1="45" x2="227" y2="327" />
</g>
<g>
	<line stroke="black" stroke-dasharray="18,6"  stroke-opacity="1" x1="314" y1="45" x2="314" y2="327" />
</g>
<g>
	<line stroke="black" stroke-dasharray="18,6"  stroke-opacity="1" x1="521" y1="45" x2="521" y2="327" />
</g>
<g>
	<line stroke="black" stroke-dasharray="18,6"  stroke-opacity="1" x1="698" y1="45" x2="698" y2="327" />
</g>
<g>
	<rect fill="#cbcbcb" stroke="none" stroke-opacity="1" x="95" y="8" width="3" height="19" />
	<rect fill="#cbcbcb" stroke="none" stroke-opacity="1" x="9" y="24" width="89" height="3" />
	<rect fill="#ffffc0" stroke="black" stroke-width="1" stroke-opacity="1" x="5" y="4" width="90" height="20" />
	<text font-family="MS Shell Dlg 2" font-size="8" fill="#000000" xml:space="preserve" text-decoration="underline" text-anchor="middle" x="50" y="18">main:MainSystem</text>
</g>
<g>
	<rect fill="#cbcbcb" stroke="none" stroke-opacity="1" x="542" y="8" width="3" height="19" />
	<rect fill="#cbcbcb" stroke="none" stroke-opacity="1" x="501" y="24" width="44" height="3" />
	<rect fill="#ffffc0" stroke="black" stroke-width="1" stroke-opacity="1" x="497" y="4" width="45" height="20" />
	<text font-family="MS Shell Dlg 2" font-size="8" fill="#000000" xml:space="preserve" text-decoration="underline" text-anchor="middle" x="520" y="18">:Motors</text>
</g>
<g>
	<rect fill="#cbcbcb" stroke="none" stroke-opacity="1" x="645" y="9" width="3" height="19" />
	<rect fill="#cbcbcb" stroke="none" stroke-opacity="1" x="564" y="25" width="84" height="3" />
	<rect fill="#ffffc0" stroke="black" stroke-width="1" stroke-opacity="1" x="560" y="5" width="85" height="20" />
	<text font-family="MS Shell Dlg 2" font-size="8" fill="#000000" xml:space="preserve" text-decoration="underline" text-anchor="middle" x="603" y="19">web:WebServer</text>
</g>
<g>
	<rect fill="#cbcbcb" stroke="none" stroke-opacity="1" x="471" y="8" width="3" height="19" />
	<rect fill="#cbcbcb" stroke="none" stroke-opacity="1" x="386" y="24" width="88" height="3" />
	<rect fill="#ffffc0" stroke="black" stroke-width="1" stroke-opacity="1" x="382" y="4" width="89" height="20" />
	<text font-family="MS Shell Dlg 2" font-size="8" fill="#000000" xml:space="preserve" text-decoration="underline" text-anchor="middle" x="427" y="18">gps:GPSManager</text>
</g>
<g>
	<rect fill="#cbcbcb" stroke="none" stroke-opacity="1" x="268" y="8" width="3" height="19" />
	<rect fill="#cbcbcb" stroke="none" stroke-opacity="1" x="186" y="24" width="85" height="3" />
	<rect fill="#ffffc0" stroke="black" stroke-width="1" stroke-opacity="1" x="182" y="4" width="86" height="20" />
	<text font-family="MS Shell Dlg 2" font-size="8" fill="#000000" xml:space="preserve" text-decoration="underline" text-anchor="middle" x="225" y="18">storage:Storage</text>
</g>
<g>
	<rect fill="#cbcbcb" stroke="none" stroke-opacity="1" x="336" y="8" width="3" height="19" />
	<rect fill="#cbcbcb" stroke="none" stroke-opacity="1" x="292" y="24" width="47" height="3" />
	<rect fill="#ffffc0" stroke="black" stroke-width="1" stroke-opacity="1" x="288" y="4" width="48" height="20" />
	<text font-family="MS Shell Dlg 2" font-size="8" fill="#000000" xml:space="preserve" text-decoration="underline" text-anchor="middle" x="312" y="18">fsm:FSM</text>
</g>
<g>
	<ellipse fill="#ffffc0" stroke="black" stroke-width="1" stroke-opacity="1" cx="698" cy="14" rx="10" ry="10" />
	<text font-family="MS Shell Dlg 2" font-size="8" fill="#000000" xml:space="preserve" text-anchor="middle" x="699" y="36">:web</text>
</g>
<g>
	<rect fill="#ffdca8" stroke="black" stroke-width="1" stroke-opacity="1" x="693" y="176" width="10" height="968" />
</g>
<g>
	<rect fill="#dfffdf" stroke="black" stroke-width="1" stroke-opacity="1" x="222" y="59" width="10" height="27" />
</g>
<g>
	<rect fill="#dfffdf" stroke="black" stroke-width="1" stroke-opacity="1" x="309" y="91" width="10" height="24" />
</g>
<g>
	<rect fill="#dfffdf" stroke="black" stroke-width="1" stroke-opacity="1" x="423" y="121" width="10" height="26" />
</g>
<g>
	<rect fill="#dfffdf" stroke="black" stroke-width="1" stroke-opacity="1" x="516" y="219" width="10" height="30" />
</g>
<g>
	<rect fill="#dfffdf" stroke="black" stroke-width="1" stroke-opacity="1" x="423" y="179" width="10" height="39" />
</g>
<g>
	<path fill="none" stroke="black" stroke-opacity="1" d="M 435 180 L 452 180 L 452 187 L 435 187" />
	<polygon fill="#000000" stroke="none" points="435,187 439,191 439,183" />
</g>
<g>
	<line stroke="black" stroke-dasharray="18,6"  stroke-opacity="1" x1="52" y1="45" x2="52" y2="327" />
</g>
<g>
	<rect fill="#dfffdf" stroke="black" stroke-width="1" stroke-opacity="1" x="47" y="54" width="10" height="189" />
</g>
<g>
	<line stroke="black" stroke-opacity="1" x1="58" y1="224" x2="516" y2="224" />
	<polygon fill="#000000" stroke="none" points="516,224 512,220 512,228" />
</g>
<g>
	<text font-family="MS Shell Dlg 2" font-size="8" fill="#000000" xml:space="preserve" x="442" y="197">setLocalTime()</text>
</g>
<g>
	<text font-family="MS Shell Dlg 2" font-size="8" fill="#000000" xml:space="preserve" x="125" y="66">loadData()</text>
</g>
<g>
	<text font-family="MS Shell Dlg 2" font-size="8" fill="#000000" xml:space="preserve" x="125" y="157">serverInit()</text>
</g>
<g>
	<text font-family="MS Shell Dlg 2" font-size="8" fill="#000000" xml:space="preserve" x="134" y="92">initFSM()</text>
</g>
<g>
	<text font-family="MS Shell Dlg 2" font-size="8" fill="#000000" xml:space="preserve" x="121" y="209">init_motors()</text>
</g>
<g>
	<text font-family="MS Shell Dlg 2" font-size="8" fill="#000000" xml:space="preserve" x="633" y="168">generate()</text>
</g>
<g>
	<text font-family="MS Shell Dlg 2" font-size="8" fill="#000000" xml:space="preserve" x="129" y="120">GPSInit()</text>
</g>
<g>
	<rect fill="#dfffdf" stroke="black" stroke-width="1" stroke-opacity="1" x="599" y="153" width="10" height="1001" />
</g>
<g>
	<line stroke="black" stroke-dasharray="18,6"  stroke-opacity="1" x1="604" y1="46" x2="604" y2="327" />
</g>
<g>
	<line stroke="black" stroke-opacity="1" x1="58" y1="165" x2="599" y2="165" />
	<polygon fill="#000000" stroke="none" points="599,165 595,161 595,169" />
</g>
<g>
	<line stroke="black" stroke-opacity="1" x1="58" y1="110" x2="309" y2="110" />
	<polygon fill="#000000" stroke="none" points="309,110 305,106 305,114" />
</g>
<g>
	<line stroke="black" stroke-opacity="1" x1="58" y1="129" x2="423" y2="129" />
	<polygon fill="#000000" stroke="none" points="423,129 419,125 419,133" />
</g>
<g>
	<rect fill="#ffdca8" stroke="black" stroke-width="1" stroke-opacity="1" x="599" y="174" width="10" height="39" />
</g>
<g>
	<line stroke="black" stroke-opacity="1" x1="58" y1="81" x2="222" y2="81" />
	<polygon fill="#000000" stroke="none" points="222,81 218,77 218,85" />
</g>
<g>
	<line stroke="black" stroke-opacity="1" x1="610" y1="181" x2="693" y2="181" />
	<polygon fill="#000000" stroke="none" points="693,181 689,177 689,185" />
</g>
</svg>
