<?xml version="1.0" encoding="UTF-8" standalone="no"?>
<!-- Created with Bouml (http://bouml.free.fr/) -->
<!DOCTYPE svg PUBLIC "-//W3C//DTD SVG 1.1//EN" "http://www.w3.org/Graphics/SVG/1.1/DTD/svg11.dtd">
<svg width="579" height="374" version="1.1" xmlns="http://www.w3.org/2000/svg">
<g>
	<rect fill="#cbcbcb" stroke="none" stroke-opacity="1" x="267" y="8" width="3" height="19" />
	<rect fill="#cbcbcb" stroke="none" stroke-opacity="1" x="200" y="24" width="70" height="3" />
	<rect fill="#ffffc0" stroke="black" stroke-width="1" stroke-opacity="1" x="196" y="4" width="71" height="20" />
	<text font-family="MS Shell Dlg 2" font-size="8" fill="#000000" xml:space="preserve" text-decoration="underline" text-anchor="middle" x="232" y="18">:ManualMode</text>
</g>
<g>
	<rect fill="#cbcbcb" stroke="none" stroke-opacity="1" x="110" y="8" width="3" height="19" />
	<rect fill="#cbcbcb" stroke="none" stroke-opacity="1" x="33" y="24" width="80" height="3" />
	<rect fill="#ffffc0" stroke="black" stroke-width="1" stroke-opacity="1" x="29" y="4" width="81" height="20" />
	<text font-family="MS Shell Dlg 2" font-size="8" fill="#000000" xml:space="preserve" text-decoration="underline" text-anchor="middle" x="70" y="18">:EphInputMode</text>
</g>
<g>
	<rect fill="#cbcbcb" stroke="none" stroke-opacity="1" x="376" y="8" width="3" height="19" />
	<rect fill="#cbcbcb" stroke="none" stroke-opacity="1" x="330" y="24" width="49" height="3" />
	<rect fill="#ffffc0" stroke="black" stroke-width="1" stroke-opacity="1" x="326" y="4" width="50" height="20" />
	<text font-family="MS Shell Dlg 2" font-size="8" fill="#000000" xml:space="preserve" text-decoration="underline" text-anchor="middle" x="351" y="18">:AOICalc</text>
</g>
<g>
	<rect fill="#cbcbcb" stroke="none" stroke-opacity="1" x="486" y="10" width="3" height="19" />
	<rect fill="#cbcbcb" stroke="none" stroke-opacity="1" x="417" y="26" width="72" height="3" />
	<rect fill="#ffffc0" stroke="black" stroke-width="1" stroke-opacity="1" x="413" y="6" width="73" height="20" />
	<text font-family="MS Shell Dlg 2" font-size="8" fill="#000000" xml:space="preserve" text-decoration="underline" text-anchor="middle" x="450" y="20">:Interpolation</text>
</g>
<g>
	<rect fill="#cbcbcb" stroke="none" stroke-opacity="1" x="569" y="8" width="3" height="19" />
	<rect fill="#cbcbcb" stroke="none" stroke-opacity="1" x="528" y="24" width="44" height="3" />
	<rect fill="#ffffc0" stroke="black" stroke-width="1" stroke-opacity="1" x="524" y="4" width="45" height="20" />
	<text font-family="MS Shell Dlg 2" font-size="8" fill="#000000" xml:space="preserve" text-decoration="underline" text-anchor="middle" x="547" y="18">:Motors</text>
</g>
<g>
	<line stroke="black" stroke-dasharray="18,6"  stroke-opacity="1" x1="233" y1="45" x2="233" y2="374" />
</g>
<g>
	<line stroke="black" stroke-dasharray="18,6"  stroke-opacity="1" x1="548" y1="45" x2="548" y2="374" />
</g>
<g>
	<line stroke="black" stroke-dasharray="18,6"  stroke-opacity="1" x1="71" y1="45" x2="71" y2="374" />
</g>
<g>
	<line stroke="black" stroke-dasharray="18,6"  stroke-opacity="1" x1="353" y1="45" x2="353" y2="374" />
</g>
<g>
	<line stroke="black" stroke-dasharray="18,6"  stroke-opacity="1" x1="451" y1="47" x2="451" y2="374" />
</g>
<g>
	<rect fill="#ffeb60" stroke="black" stroke-width="1" stroke-opacity="1" x="66" y="122" width="10" height="39" />
</g>
<g>
	<rect fill="#ffeb60" stroke="black" stroke-width="1" stroke-opacity="1" x="543" y="196" width="10" height="24" />
</g>
<g>
	<rect fill="#ffeb60" stroke="black" stroke-width="1" stroke-opacity="1" x="66" y="64" width="10" height="39" />
</g>
<g>
	<rect fill="#ffeb60" stroke="black" stroke-width="1" stroke-opacity="1" x="66" y="196" width="10" height="39" />
</g>
<g>
	<rect fill="#ffeb60" stroke="black" stroke-width="1" stroke-opacity="1" x="446" y="122" width="10" height="24" />
</g>
<g>
	<rect fill="#ffeb60" stroke="black" stroke-width="1" stroke-opacity="1" x="228" y="334" width="10" height="24" />
</g>
<g>
	<rect fill="#ffeb60" stroke="black" stroke-width="1" stroke-opacity="1" x="543" y="329" width="10" height="25" />
</g>
<g>
	<rect fill="#ffeb60" stroke="black" stroke-width="1" stroke-opacity="1" x="348" y="64" width="10" height="24" />
</g>
<g>
	<line stroke="black" stroke-opacity="1" x1="77" y1="201" x2="543" y2="201" />
	<polygon fill="#000000" stroke="none" points="543,201 539,197 539,205" />
</g>
<g>
	<line stroke="black" stroke-opacity="1" x1="77" y1="127" x2="446" y2="127" />
	<polygon fill="#000000" stroke="none" points="446,127 442,123 442,131" />
</g>
<g>
	<line stroke="black" stroke-opacity="1" x1="239" y1="339" x2="543" y2="339" />
	<polygon fill="#000000" stroke="none" points="543,339 539,335 539,343" />
</g>
<g>
	<line stroke="black" stroke-opacity="1" x1="77" y1="69" x2="348" y2="69" />
	<polygon fill="#000000" stroke="none" points="348,69 344,65 344,73" />
</g>
<g>
	<text font-family="MS Shell Dlg 2" font-size="8" fill="#000000" xml:space="preserve" x="141" y="193">move()</text>
</g>
<g>
	<text font-family="MS Shell Dlg 2" font-size="8" fill="#000000" xml:space="preserve" x="277" y="329">move()</text>
</g>
<g>
	<text font-family="MS Shell Dlg 2" font-size="8" fill="#000000" xml:space="preserve" x="135" y="55">aoicalc_f()</text>
</g>
<g>
	<text font-family="MS Shell Dlg 2" font-size="8" fill="#000000" xml:space="preserve" x="124" y="119">interpolation_f()</text>
</g>
</svg>
